<svg xmlns="http://www.w3.org/2000/svg" width="200" height="200" viewBox="0 0 52.917 52.917"><path fill-rule="evenodd" clip-rule="evenodd" d="M28.831 1.305l22.78 22.78c1.682 1.682 1.748 4.369.146 5.97L30.056 51.758c-1.602 1.602-4.289 1.536-5.97-.145l-22.78-22.78c-1.683-1.682-1.748-4.369-.146-5.97L22.861 1.16c1.602-1.602 4.289-1.537 5.97.145z" fill="#1a202c"/><g fill-rule="evenodd" clip-rule="evenodd"><path d="M18.122 19.542c-.77-6.903 3.263-11.758 10.824-14.523-4.63 6.008 3.948 12.517 4.421 18.756 1.11-1.892 1.739-4.416 1.863-7.792 5.67 8.895.969 23.434-11.51 21.344a10.526 10.526 0 01-3.254-1.093c-4.55-2.429-7.268-7.723-7.268-12.779 0-3.223 1.379-6.099 3.162-8.385.238 2.239.746 3.908 1.762 4.472z" fill="#ec6f59"/><path d="M22.16 29.514c-1.286-3.32-1.109-8.684 2.492-10.565.027 6.165 6.099 6.95 4.974 13.53 1.037-1.174 1.561-3.052 1.654-4.537 1.646 3.768.354 6.782-1.992 8.316-7.136 4.667-13.28-4.794-9.195-9.98.125 1.159 1.543 2.948 2.067 3.236z" fill="#fad15c"/></g><path d="M20.01 42.875l4.126-5.003 1.887 2.407-3.638 4.626c-1.393 1.77-3.97-.095-2.375-2.03zm4.818-11.392c.393-1.282.212-2.378-1.264-4.005l-3.608-4.34c-.512-.6-1.718.282-1.214 1.01l2.885 3.554c.546.663-.468 1.54-1.032.858l-2.984-3.675c-.556-.637-1.705.204-1.123.932.841 1.012 2.143 2.665 2.984 3.677.584.594-.303 1.473-.879.733l-2.963-3.652c-.434-.472-1.145-.178-1.333.373-.202.59.296 1.02.635 1.457l3.306 4.27c1.026 1.189 2.173 1.893 3.506 1.495.205-.062.455-.187.723-.352l8.882 11.466c.478.617 1.4.683 2 .185l.137-.114c.675-.561.784-1.587.206-2.25l-9.406-10.807c.274-.305.475-.595.542-.815zm2.514 2.5l1.463-1.774c-1.881-4.663 5.09-10.878 8.469-8.02 4.106 3.474-1.996 11.848-6.284 9.778l-1.733 2.2z" fill="#e2e8f0"/></svg>